Coordinates
version=1
nRows=13
nColumns=40
inDegrees=yes

Units are S.I. units (second, meters, Newtons, ...)
Angles are in degrees.

endheader
time	pelvis_tilt	pelvis_list	pelvis_rotation	pelvis_tx	pelvis_ty	pelvis_tz	hip_flexion_r	hip_adduction_r	hip_rotation_r	knee_angle_r	knee_angle_r_beta	ankle_angle_r	subtalar_angle_r	mtp_angle_r	hip_flexion_l	hip_adduction_l	hip_rotation_l	knee_angle_l	knee_angle_l_beta	ankle_angle_l	subtalar_angle_l	mtp_angle_l	lumbar_extension	lumbar_bending	lumbar_rotation	arm_flex_r	arm_add_r	arm_rot_r	elbow_flex_r	pro_sup_r	wrist_flex_r	wrist_dev_r	arm_flex_l	arm_add_l	arm_rot_l	elbow_flex_l	pro_sup_l	wrist_flex_l	wrist_dev_l
     53.55000000	     -3.00819353	     -5.16017012	     -0.81943486	      1.03989210	      0.93387358	      0.42891121	     29.25395368	     -3.70338110	     -4.67172162	     55.34629202	     55.34629202	      2.99864943	    -14.01660162	      0.47080694	     12.01737791	     -7.42953604	     -9.18180160	     21.61307591	     21.61307591	     13.84997257	    -11.33225633	     -1.29161858	    -10.76964119	      5.25066511	      0.64074441	      4.06817257	    -12.61402735	     -1.43591081	     36.97946987	     46.05069473	      0.00000000	      0.00000000	     17.27172202	    -15.73803243	     -4.60759465	     52.04389614	     46.43505861	      0.00000000	      0.00000000
     53.56285714	     -3.27870692	     -5.15548446	     -1.20378733	      1.03929333	      0.93383261	      0.42952184	     29.99915723	     -3.48834059	     -4.42271806	     53.26414739	     53.26414739	      3.16055539	    -13.51830231	      0.58315972	     11.78904492	     -7.45745077	     -9.46711236	     21.39278344	     21.39278344	     13.99938087	    -11.46448385	     -1.31368925	    -10.70365399	      5.31885860	      0.31242863	      3.11755230	    -12.52471344	     -1.41192120	     36.40712864	     46.06455948	      0.00000000	      0.00000000	     18.11359219	    -16.22253381	     -4.74934856	     52.59631288	     46.46309967	      0.00000000	      0.00000000
     53.57571429	     -3.33174038	     -5.43592053	     -1.60475264	      1.03911368	      0.93444575	      0.43031997	     30.18602107	     -3.04212617	     -4.53408617	     50.62025700	     50.62025700	      3.26381275	    -12.60446790	      0.46884219	     10.94092979	     -7.73221276	     -9.69390007	     20.49912558	     20.49912558	     14.00345936	    -11.42633675	     -1.28971033	    -10.92717375	      5.70404934	      1.12002674	      1.90237034	    -12.70076305	     -1.44084625	     34.42115417	     46.13604068	      0.00000000	      0.00000000	     19.04031375	    -15.90558093	     -4.69138323	     54.63470769	     46.49636306	      0.00000000	      0.00000000
     53.58857143	     -3.48528616	     -5.42361355	     -2.06260495	      1.03879928	      0.93455598	      0.43124072	     30.47316037	     -2.81297051	     -4.41053172	     47.87649257	     47.87649257	      3.43760037	    -11.56808195	      0.03489824	     10.35528377	     -7.73302662	    -10.07782403	     19.90000567	     19.90000567	     13.96420498	    -11.49364702	     -1.53908982	    -11.07196081	      5.71469755	      1.41512166	      1.23098927	    -12.61691601	     -1.67924910	     32.16030658	     46.23672193	      0.00000000	      0.00000000	     19.64217038	    -16.18136906	     -4.55666587	     56.96683933	     46.52896119	      0.00000000	      0.00000000
     53.60142857	     -3.87344347	     -5.46254676	     -2.44960456	      1.03837956	      0.93424832	      0.43224974	     30.91636488	     -2.50593321	     -4.38936598	     44.93642656	     44.93642656	      3.56763381	    -10.52909872	      0.08257629	     10.13546892	     -7.81460075	    -10.37976720	     19.46821388	     19.46821388	     14.02710471	    -11.53299568	     -1.62138955	    -10.86343107	      5.85512905	      1.24412089	      0.38604907	    -12.52772475	     -1.76581206	     31.24612934	     46.27295388	      0.00000000	      0.00000000	     20.24426902	    -16.65091635	     -4.63731290	     57.95430467	     46.55710980	      0.00000000	      0.00000000
     53.61428571	     -3.99395304	     -5.37122013	     -2.86175105	      1.03836304	      0.93416941	      0.43328580	     30.82814325	     -2.39566608	     -4.52765670	     41.64236578	     41.64236578	      3.38197996	     -9.08247539	     -1.71817434	      9.43805457	     -7.72616236	    -10.79945649	     18.71807997	     18.71807997	     13.62551284	    -11.62471873	     -2.79104490	    -11.03174783	      5.75465444	      0.71915945	      1.14726092	    -12.07402307	     -3.12112860	     26.86074907	     46.55820274	      0.00000000	      0.00000000	     19.31721066	    -17.72560492	     -4.29458381	     62.82799451	     46.62661051	      0.00000000	      0.00000000
     53.62714286	     -4.28637711	     -5.39393352	     -3.17819909	      1.03829480	      0.93387529	      0.43445837	     30.78888539	     -2.08455308	     -4.71953307	     38.22343500	     38.22343500	      3.61950833	     -7.61001935	     -1.55788568	      9.07429996	     -7.79111526	    -11.08380710	     18.24150893	     18.24150893	     13.70727336	    -11.56817667	     -2.86132729	    -10.92226783	      5.87737993	      0.72499456	      0.25819651	    -12.18301553	     -3.28952102	     26.17471488	     46.59245177	      0.00000000	      0.00000000	     20.00196392	    -17.84076429	     -4.53390924	     63.66443452	     46.66872062	      0.00000000	      0.00000000
     53.64000000	     -4.53919326	     -5.33750834	     -3.49830247	      1.03849107	      0.93347122	      0.43573008	     30.57850020	     -1.86461153	     -5.04799392	     34.76924226	     34.76924226	      3.90011864	     -5.86897175	     -1.36869393	      8.62817502	     -7.77628213	    -11.44486459	     17.72407233	     17.72407233	     13.77786218	    -11.40497452	     -3.01364092	    -10.84877470	      5.90813473	      0.88838547	     -0.64001189	    -12.28233563	     -3.47169669	     25.46554267	     46.62948961	      0.00000000	      0.00000000	     20.64554893	    -17.88949679	     -4.68652810	     64.84721967	     46.70916283	      0.00000000	      0.00000000
     53.65285714	     -4.66903380	     -5.15906338	     -3.80391055	      1.03899742	      0.93296319	      0.43710439	     30.18613178	     -1.81374190	     -5.61346658	     31.45830365	     31.45830365	      4.12744841	     -3.78000397	     -1.26012239	      7.98730403	     -7.63383674	    -11.92951397	     17.10160344	     17.10160344	     13.54229396	    -11.22764914	     -4.20421407	    -10.92919458	      5.71998755	      0.61405865	     -0.90702800	    -12.13444635	     -5.02460195	     23.97530226	     46.81927620	      0.00000000	      0.00000000	     20.35012981	    -18.43527275	     -4.91687430	     67.95313956	     46.82584650	      0.00000000	      0.00000000
     53.66571429	     -4.84914860	     -5.00720823	     -4.07164134	      1.03971597	      0.93230475	      0.43867159	     29.73846290	     -1.63847869	     -6.12440077	     28.25257861	     28.25257861	      4.36292990	     -2.05116317	     -0.63635835	      7.44028043	     -7.52202364	    -12.30378339	     16.59814175	     16.59814175	     13.68641796	    -11.02715577	     -4.39798304	    -10.84480785	      5.59473702	      0.77005201	     -1.78142906	    -12.19793470	     -5.28395941	     23.48148670	     46.85343440	      0.00000000	      0.00000000	     21.01020340	    -18.40267221	     -5.02758737	     68.86679964	     46.86641112	      0.00000000	      0.00000000
     53.67857143	     -5.11685872	     -4.86390812	     -4.27776464	      1.04074231	      0.93135137	      0.44043236	     29.30514975	     -1.40438382	     -6.68310000	     25.28450135	     25.28450135	      4.46896988	     -0.76181881	      0.11169293	      7.02432051	     -7.44057752	    -12.58680773	     16.17010999	     16.17010999	     13.85314366	    -10.82696265	     -4.59792033	    -10.55917168	      5.48445016	      0.76551948	     -2.58252770	    -12.23654985	     -5.42886094	     23.18401841	     46.87017619	      0.00000000	      0.00000000	     21.43663741	    -18.45584920	     -5.03714950	     69.63668876	     46.88972912	      0.00000000	      0.00000000
     53.69142857	     -5.11807131	     -4.63656239	     -4.46289306	      1.04223597	      0.93054945	      0.44228061	     28.65448416	     -1.34324236	     -7.54335428	     22.89759862	     22.89759862	      4.82305665	      0.90194920	      1.26551406	      6.23450159	     -7.25693030	    -13.03269529	     15.64136544	     15.64136544	     14.02393403	    -10.39529569	     -5.07092967	    -10.57989335	      5.23484455	      0.89465442	     -3.45291271	    -12.29222610	     -5.74475805	     23.05835415	     46.89166106	      0.00000000	      0.00000000	     21.80815480	    -18.53154918	     -4.91703388	     70.93841416	     46.92219955	      0.00000000	      0.00000000
     53.70428571	     -5.25163757	     -4.48605934	     -4.59731091	      1.04394135	      0.92940545	      0.44435586	     28.19908885	     -1.16252411	     -8.34251984	     21.07702948	     21.07702948	      5.48043713	      2.02664120	      3.67744186	      5.64956451	     -7.18739578	    -13.33849289	     15.23217636	     15.23217636	     14.11344963	    -10.16456712	     -5.78077339	    -10.37804807	      5.09878018	      0.81257692	     -4.29137009	    -12.26475763	     -6.45642205	     23.49145712	     46.91219511	      0.00000000	      0.00000000	     21.87062770	    -18.72779167	     -4.62021104	     72.17293824	     46.97808676	      0.00000000	      0.00000000
